HIERARCHY
ROOT Hips
{
	OFFSET 0.000000 0.000000 0.000000
	CHANNELS 6 Xposition Yposition Zposition Zrotation Xrotation Yrotation
	JOINT Spine
	{
		OFFSET 0.000000 1.053067 0.000000
		CHANNELS 6 Xposition Yposition Zposition Zrotation Xrotation Yrotation
		JOINT Spine1
		{
			OFFSET 0.000000 2.382877 0.000001
			CHANNELS 6 Xposition Yposition Zposition Zrotation Xrotation Yrotation
			JOINT Neck
			{
				OFFSET 0.000000 2.639722 0.000001
				CHANNELS 6 Xposition Yposition Zposition Zrotation Xrotation Yrotation
				JOINT Head
				{
					OFFSET 0.000000 1.990555 0.256846
					CHANNELS 6 Xposition Yposition Zposition Zrotation Xrotation Yrotation
					End Site
					{
						OFFSET 0.000000 2.568457 0.000001
					}
				}
			}
			JOINT LeftShoulder
			{
				OFFSET 0.512620 2.153831 -0.056020
				CHANNELS 6 Xposition Yposition Zposition Zrotation Xrotation Yrotation
				JOINT LeftArm
				{
					OFFSET 1.485729 0.000000 0.000000
					CHANNELS 6 Xposition Yposition Zposition Zrotation Xrotation Yrotation
					JOINT LeftForeArm
					{
						OFFSET 3.852898 0.000000 0.000000
						CHANNELS 6 Xposition Yposition Zposition Zrotation Xrotation Yrotation
						JOINT LeftHand
						{
							OFFSET 3.445927 0.000000 0.000000
							CHANNELS 6 Xposition Yposition Zposition Zrotation Xrotation Yrotation
							End Site
							{
								OFFSET 1.926343 0.000000 0.000000
							}
						}
					}
				}
			}
			JOINT RightShoulder
			{
				OFFSET -0.513668 2.153831 -0.056020
				CHANNELS 6 Xposition Yposition Zposition Zrotation Xrotation Yrotation
				JOINT RightArm
				{
					OFFSET -1.485729 0.000000 0.000000
					CHANNELS 6 Xposition Yposition Zposition Zrotation Xrotation Yrotation
					JOINT RightForeArm
					{
						OFFSET -3.852898 0.000000 0.000000
						CHANNELS 6 Xposition Yposition Zposition Zrotation Xrotation Yrotation
						JOINT RightHand
						{
							OFFSET -3.445927 0.000000 0.000000
							CHANNELS 6 Xposition Yposition Zposition Zrotation Xrotation Yrotation
							End Site
							{
								OFFSET -1.926343 0.000000 0.000000
							}
						}
					}
				}
			}
		}
	}
	JOINT LeftUpLeg
	{
		OFFSET 1.284228 0.000000 0.000000
		CHANNELS 6 Xposition Yposition Zposition Zrotation Xrotation Yrotation
		JOINT LeftLeg
		{
			OFFSET 0.000000 -6.684024 -0.000004
			CHANNELS 6 Xposition Yposition Zposition Zrotation Xrotation Yrotation
			JOINT LeftFoot
			{
				OFFSET 0.000000 -5.369456 -0.000004
				CHANNELS 6 Xposition Yposition Zposition Zrotation Xrotation Yrotation
				JOINT LeftToeBase
				{
					OFFSET 0.000000 -0.834749 1.926342
					CHANNELS 6 Xposition Yposition Zposition Zrotation Xrotation Yrotation
					End Site
					{
						OFFSET 0.000000 0.000000 0.513691
					}
				}
			}
		}
	}
	JOINT RightUpLeg
	{
		OFFSET -1.284228 0.000000 0.000000
		CHANNELS 6 Xposition Yposition Zposition Zrotation Xrotation Yrotation
		JOINT RightLeg
		{
			OFFSET 0.000000 -6.684024 -0.000004
			CHANNELS 6 Xposition Yposition Zposition Zrotation Xrotation Yrotation
			JOINT RightFoot
			{
				OFFSET 0.000000 -5.369456 -0.000004
				CHANNELS 6 Xposition Yposition Zposition Zrotation Xrotation Yrotation
				JOINT RightToeBase
				{
					OFFSET 0.000000 -0.834749 1.926342
					CHANNELS 6 Xposition Yposition Zposition Zrotation Xrotation Yrotation
					End Site
					{
						OFFSET 0.000000 0.000000 0.513691
					}
				}
			}
		}
	}
}
MOTION
Frames: 4
Frame Time: 0.041667
-0.565405 11.932114 -1.058780 -9.362425 3.772124 86.394305 0.000000 1.053067 0.000002 -0.799456 -8.308859 -6.586909 0.000000 2.382875 0.000001 13.287667 0.194489 -2.183461 0.000001 2.639727 0.000001 -13.544602 23.526952 -22.900265 -0.000000 1.990552 0.256849 37.365025 -5.655227 -30.775863 0.512620 2.153832 -0.056020 15.784002 -2.113455 -9.888514 1.485726 0.000002 0.000000 -10.084212 16.000640 1.475516 3.852898 0.000003 0.000004 16.126847 -25.376048 7.377690 3.445931 -0.000003 0.000001 -41.611708 -19.576031 -19.077164 -0.513667 2.153836 -0.056020 -5.767216 8.319226 -5.699623 -1.485730 -0.000005 0.000000 32.147399 27.010137 4.481577 -3.852898 0.000001 0.000004 -15.806844 -12.804585 62.291557 -3.445927 0.000001 0.000001 5.478157 -3.071698 4.308749 1.284228 0.000002 0.000000 7.642067 -16.940112 -3.619548 0.000000 -6.684023 -0.000005 -11.843730 28.183623 17.513134 -0.000000 -5.369454 -0.000003 -0.420403 -13.015907 18.558104 -0.000002 -0.834748 1.926343 0.000002 -0.000001 -0.000007 -1.284228 0.000002 0.000000 -9.204295 -21.890218 3.860449 0.000000 -6.684023 -0.000005 7.011936 37.241180 -2.142199 -0.000000 -5.369458 -0.000003 4.816211 -20.717314 -0.318728 -0.000000 -0.834750 1.926343 0.000000 -0.000001 0.000000 
-0.565673 11.946294 -1.100464 -9.350307 3.748871 86.159087 -0.000000 1.053066 0.000001 -0.719999 -8.377107 -6.567857 0.000000 2.382876 0.000001 13.044872 0.137792 -2.171913 0.000001 2.639723 0.000001 -13.584361 23.661780 -22.857529 -0.000000 1.990560 0.256846 37.260127 -6.141600 -30.590884 0.512620 2.153831 -0.056020 15.844099 -2.074349 -9.945193 1.485729 0.000003 -0.000001 -10.089465 15.851047 1.533169 3.852903 0.000004 -0.000001 16.095435 -25.346106 7.315711 3.445928 0.000002 0.000000 -41.714882 -19.517459 -19.072572 -0.513666 2.153836 -0.056020 -6.001680 8.160545 -5.664351 -1.485729 -0.000003 -0.000001 31.860500 26.670782 4.236355 -3.852897 -0.000000 0.000002 -15.859074 -14.928828 63.419830 -3.445929 0.000000 -0.000000 8.638149 -4.836173 4.976125 1.284228 -0.000002 -0.000000 7.374180 -16.428645 -3.473516 -0.000000 -6.684023 -0.000004 -11.464260 27.182370 17.339137 0.000001 -5.369458 -0.000004 -0.257307 -12.966722 18.792140 -0.000000 -0.834750 1.926343 0.000001 -0.000002 0.000001 -1.284228 -0.000003 -0.000000 -9.297184 -21.797393 4.020952 0.000000 -6.684026 -0.000003 6.870059 36.858129 -2.153496 -0.000000 -5.369460 -0.000005 5.172521 -20.282641 -0.055298 0.000000 -0.834749 1.926343 -0.000000 0.000002 -0.000000 
-0.567124 11.959994 -1.143169 -9.335567 3.725791 85.953102 -0.000000 1.053067 0.000000 -0.627649 -8.412776 -6.563764 0.000000 2.382878 0.000002 12.771969 0.041027 -2.161483 -0.000000 2.639721 0.000002 -13.607514 23.790404 -22.840264 -0.000000 1.990556 0.256851 37.137965 -6.595051 -30.435688 0.512620 2.153833 -0.056020 15.932238 -2.042467 -10.002237 1.485726 0.000002 0.000000 -10.180877 16.048310 1.519747 3.852898 -0.000000 0.000000 16.275246 -25.463635 7.513744 3.445926 -0.000005 -0.000000 -41.834502 -19.615450 -19.181937 -0.513668 2.153833 -0.056020 -6.285301 7.911895 -5.524521 -1.485729 0.000001 -0.000001 31.654058 25.972774 3.803103 -3.852897 0.000003 0.000002 -15.525925 -16.638368 64.802984 -3.445930 0.000002 -0.000001 11.384792 -6.394463 5.350903 1.284228 -0.000002 0.000000 7.075105 -15.963675 -3.308750 -0.000001 -6.684024 -0.000004 -11.111505 26.194482 17.580902 -0.000001 -5.369459 -0.000003 0.139126 -12.844918 18.752938 0.000000 -0.834749 1.926343 -0.000001 -0.000001 -0.000002 -1.284229 -0.000001 -0.000000 -9.368551 -21.707427 4.172013 0.000000 -6.684024 -0.000004 6.639095 36.491228 -2.216979 -0.000000 -5.369461 -0.000004 5.587919 -19.841973 0.296135 0.000000 -0.834750 1.926342 0.000000 0.000001 0.000000 
-0.569232 11.974534 -1.186775 -9.321714 3.716512 85.728027 0.000000 1.053066 0.000000 -0.553117 -8.391127 -6.548352 0.000000 2.382878 0.000001 12.533667 -0.156074 -2.136422 0.000000 2.639720 0.000001 -13.685026 23.952483 -22.791648 -0.000002 1.990558 0.256847 37.026476 -7.025700 -30.280582 0.512621 2.153826 -0.056020 15.993438 -1.928584 -10.029325 1.485729 -0.000002 -0.000002 -10.094352 15.517399 1.536052 3.852897 0.000003 0.000002 16.022119 -25.284049 7.244919 3.445931 0.000003 -0.000001 -41.708496 -19.467009 -18.999664 -0.513669 2.153824 -0.056020 -6.627380 7.802092 -5.451139 -1.485729 -0.000003 -0.000000 31.364034 25.138361 3.585326 -3.852897 0.000000 0.000004 -15.102545 -18.232176 66.180257 -3.445930 -0.000000 0.000001 13.876922 -7.900992 5.761504 1.284229 -0.000004 -0.000000 6.783539 -15.529309 -3.147231 0.000002 -6.684021 -0.000005 -10.844744 25.311026 17.939077 -0.000001 -5.369459 -0.000002 0.573241 -12.714533 18.600157 0.000001 -0.834749 1.926342 0.000001 0.000004 -0.000001 -1.284228 -0.000002 -0.000000 -9.451986 -21.619461 4.432772 0.000000 -6.684026 -0.000005 6.484932 36.097020 -2.284154 -0.000000 -5.369461 -0.000005 5.946723 -19.397879 0.503338 -0.000000 -0.834750 1.926343 -0.000000 0.000004 -0.000000 
